<?xml version="1.0" standalone="no"?>
<!DOCTYPE svg PUBLIC "-//W3C//DTD SVG 20010904//EN"
 "http://www.w3.org/TR/2001/REC-SVG-20010904/DTD/svg10.dtd">
<svg version="1.0" xmlns="http://www.w3.org/2000/svg"
 width="1200.000000pt" height="1200.000000pt" viewBox="0 0 1200.000000 1200.000000"
 preserveAspectRatio="xMidYMid meet">

<g transform="translate(0.000000,1200.000000) scale(0.100000,-0.100000)"
fill="#000000" stroke="none">
<path d="M2165 7295 c-46 -45 -19 -115 45 -115 65 0 94 79 44 119 -35 27 -59
26 -89 -4z"/>
<path d="M2615 7208 c-27 -16 -35 -28 -35 -60 0 -64 80 -91 119 -42 26 33 26
55 4 82 -22 26 -62 35 -88 20z"/>
<path d="M1792 7150 c-44 -41 -15 -120 43 -120 31 0 75 41 75 70 0 28 -43 70
-73 70 -13 0 -33 -9 -45 -20z"/>
<path d="M2930 6940 c-42 -42 -8 -120 52 -120 29 0 68 41 68 70 0 10 -9 29
-21 44 -25 32 -70 35 -99 6z"/>
<path d="M1503 6856 c-48 -41 -20 -118 42 -118 67 0 94 108 32 128 -40 14 -47
13 -74 -10z"/>
<path d="M6790 6220 l0 -450 85 0 85 0 0 208 c0 180 3 212 19 248 25 56 64 84
115 84 93 0 106 -39 106 -329 l0 -211 85 0 85 0 0 230 c0 242 -8 309 -43 362
-73 109 -268 99 -345 -18 l-28 -41 4 183 4 184 -86 0 -86 0 0 -450z"/>
<path d="M6104 6515 l-26 -85 -54 0 -54 0 0 -54 0 -55 48 -3 47 -3 5 -215 c4
-179 8 -220 22 -247 40 -72 120 -99 267 -90 142 10 141 9 141 71 l0 52 -109
-4 c-157 -6 -151 -17 -151 238 l0 200 115 0 115 0 0 55 0 55 -115 0 -115 0 0
85 0 85 -55 0 -54 0 -27 -85z"/>
<path d="M9444 6515 l-26 -85 -54 0 -54 0 0 -54 0 -55 48 -3 47 -3 5 -215 c4
-179 8 -220 22 -247 40 -72 120 -99 267 -90 142 10 141 9 141 71 l0 52 -109
-4 c-157 -6 -151 -17 -151 238 l0 200 115 0 115 0 0 55 0 55 -115 0 -115 0 0
85 0 85 -55 0 -54 0 -27 -85z"/>
<path d="M3440 6180 l0 -410 305 0 305 0 0 70 0 70 -215 0 -215 0 0 100 0 100
185 0 185 0 0 70 0 70 -185 0 -185 0 0 100 0 100 205 0 205 0 0 70 0 70 -295
0 -295 0 0 -410z"/>
<path d="M7620 6180 l0 -412 178 4 c200 5 242 15 311 74 83 71 122 177 122
334 1 157 -34 257 -112 324 -76 65 -131 79 -326 84 l-173 4 0 -412z m326 251
c87 -40 127 -161 104 -319 -20 -141 -68 -194 -182 -200 l-68 -4 0 271 0 271
53 0 c29 0 70 -9 93 -19z"/>
<path d="M1350 6480 c-27 -27 -25 -66 5 -95 30 -30 54 -31 89 -4 50 40 21 119
-44 119 -17 0 -39 -9 -50 -20z"/>
<path d="M4458 6427 c-25 -7 -57 -21 -71 -30 -36 -23 -76 -78 -83 -114 -6 -30
-6 -30 48 -36 105 -13 115 -11 128 29 19 57 88 72 136 31 22 -19 28 -34 32
-80 l4 -57 -78 0 c-160 -1 -259 -41 -291 -119 -19 -45 -19 -150 0 -188 64
-123 236 -139 340 -32 26 27 49 49 51 49 2 0 6 -14 10 -30 3 -17 17 -42 30
-55 22 -22 34 -25 95 -25 95 0 101 3 101 55 0 42 -1 44 -32 47 -51 5 -58 30
-58 218 0 91 -5 182 -10 202 -14 49 -53 94 -103 120 -52 26 -181 34 -249 15z
m192 -387 c0 -85 -50 -149 -122 -157 -52 -6 -77 16 -85 74 -11 85 33 122 145
123 l62 0 0 -40z"/>
<path d="M5480 6428 c-50 -14 -94 -51 -118 -99 l-20 -41 -8 49 c-13 93 -13 93
-104 93 -73 0 -81 -2 -76 -17 18 -61 26 -178 26 -395 l0 -248 84 0 84 0 4 178
c3 171 4 179 31 235 20 40 42 66 70 85 37 25 48 27 134 26 l93 -1 0 67 0 68
-31 6 c-45 9 -128 6 -169 -6z"/>
<path d="M8628 6427 c-25 -7 -57 -21 -71 -30 -36 -23 -76 -78 -83 -114 -6 -30
-6 -30 48 -36 105 -13 115 -11 128 29 19 57 88 72 136 31 22 -19 28 -34 32
-80 l4 -57 -78 0 c-160 -1 -259 -41 -291 -119 -19 -45 -19 -150 0 -188 64
-123 236 -139 340 -32 26 27 49 49 51 49 2 0 6 -14 10 -30 3 -17 17 -42 30
-55 22 -22 34 -25 95 -25 95 0 101 3 101 55 0 42 -1 44 -32 47 -51 5 -58 30
-58 218 0 91 -5 182 -10 202 -14 49 -53 94 -103 120 -52 26 -181 34 -249 15z
m192 -387 c0 -85 -50 -149 -122 -157 -52 -6 -77 16 -85 74 -11 85 33 122 145
123 l62 0 0 -40z"/>
<path d="M10308 6427 c-25 -7 -57 -21 -71 -30 -36 -23 -76 -78 -83 -114 -6
-30 -6 -30 48 -36 105 -13 115 -11 128 29 19 57 88 72 136 31 22 -19 28 -34
32 -80 l4 -57 -78 0 c-160 -1 -259 -41 -291 -119 -19 -45 -19 -150 0 -188 64
-123 236 -139 340 -32 26 27 49 49 51 49 2 0 6 -14 10 -30 3 -17 17 -42 30
-55 22 -22 34 -25 95 -25 95 0 101 3 101 55 0 42 -1 44 -32 47 -51 5 -58 30
-58 218 0 91 -5 182 -10 202 -14 49 -53 94 -103 120 -52 26 -181 34 -249 15z
m192 -387 c0 -85 -50 -149 -122 -157 -52 -6 -77 16 -85 74 -11 85 33 122 145
123 l62 0 0 -40z"/>
<path d="M1463 6080 c-69 -28 -48 -133 27 -133 59 0 91 67 53 111 -22 25 -51
33 -80 22z"/>
<path d="M2860 5798 c-28 -31 -26 -72 6 -97 15 -12 34 -21 44 -21 31 0 70 39
70 71 0 62 -78 92 -120 47z"/>
<path d="M1707 5733 c-50 -56 6 -140 75 -114 30 11 35 18 42 54 11 60 -76 105
-117 60z"/>
<path d="M2486 5598 c-54 -76 47 -157 107 -86 39 46 6 108 -57 108 -25 0 -39
-7 -50 -22z"/>
<path d="M2075 5575 c-30 -30 -31 -54 -4 -89 39 -49 119 -22 119 42 0 33 -8
45 -37 61 -33 17 -51 14 -78 -14z"/>
</g>
</svg>
